<svg width="215" height="25" viewBox="0 0 215 25" fill="none" xmlns="http://www.w3.org/2000/svg">
<path d="M12.068 3.8336C11.276 3.4016 10.04 3.1856 8.36 3.1856C6.704 3.1856 5.348 3.6296 4.292 4.5176C4.004 4.9736 3.86 5.6336 3.86 6.4976C3.86 8.3456 4.844 9.6416 6.812 10.3856L11.492 12.1856C14.564 13.3616 16.1 15.4856 16.1 18.5576C16.1 20.6456 15.368 22.2296 13.904 23.3096C12.44 24.3896 10.544 24.9296 8.216 24.9296C5 24.9296 2.348 23.9456 0.26 21.9776L2.564 18.0536L3.428 18.3056L3.968 21.7616C4.856 22.3856 6.14 22.6976 7.82 22.6976C11.396 22.6976 13.184 21.4856 13.184 19.0616C13.184 18.0776 12.872 17.2736 12.248 16.6496C11.624 16.0256 10.652 15.4616 9.332 14.9576L5.192 13.3736C2.384 12.2936 0.98 10.3496 0.98 7.5416C0.98 5.4296 1.724 3.8096 3.212 2.6816C4.7 1.5296 6.596 0.9536 8.9 0.9536C11.708 0.9536 13.964 1.9376 15.668 3.9056L13.112 7.4696L12.248 7.2176L12.068 3.8336ZM45.0657 4.2296V22.5896L48.1617 23.8496L47.9457 24.6416H39.1257L38.9097 23.8496L40.8897 23.0216C41.3217 22.8536 41.6097 22.6736 41.7537 22.4816C41.9217 22.2896 42.0057 22.0136 42.0057 21.6536V13.6976H30.3777V22.5896L33.4737 23.8496L33.2577 24.6416H24.4377L24.2217 23.8496L26.2017 23.0216C26.6337 22.8536 26.9217 22.6736 27.0657 22.4816C27.2337 22.2896 27.3177 22.0136 27.3177 21.6536V3.2936L24.2217 2.0336L24.4377 1.2416H33.2577L33.4737 2.0336L31.4937 2.8616C31.0617 3.0296 30.7617 3.2096 30.5937 3.4016C30.4497 3.5936 30.3777 3.8696 30.3777 4.2296V11.6456H42.0057V3.2936L38.9097 2.0336L39.1257 1.2416H47.9457L48.1617 2.0336L46.1817 2.8616C45.7497 3.0296 45.4497 3.2096 45.2817 3.4016C45.1377 3.5936 45.0657 3.8696 45.0657 4.2296ZM62.18 4.1936V11.9696C64.46 11.9696 66.776 11.8616 69.128 11.6456L70.28 11.5376L70.676 11.9696L70.28 13.9856C67.424 13.8176 64.724 13.7336 62.18 13.7336V22.7696L69.992 22.6256L71.72 19.4576L72.8 19.7096V24.6416H56.24L56.024 23.8496L58.004 23.0216C58.436 22.8536 58.724 22.6736 58.868 22.4816C59.036 22.2896 59.12 22.0136 59.12 21.6536V3.2936L56.024 2.0336L56.24 1.2416H72.62V6.1736L71.54 6.4256L69.812 3.2576L63.152 3.1136C62.504 3.1136 62.18 3.4736 62.18 4.1936ZM89.2852 14.4896H87.1972V22.5896L90.1852 23.8496L89.9692 24.6416H81.2572L81.0412 23.8496L83.0212 23.0216C83.4532 22.8536 83.7412 22.6736 83.8852 22.4816C84.0532 22.2896 84.1372 22.0136 84.1372 21.6536V3.2936L81.0412 2.0336L81.2572 1.2416C85.2172 1.0496 87.9292 0.9536 89.3932 0.9536C95.6092 0.9536 98.7172 3.1856 98.7172 7.6496C98.7172 11.1776 96.8212 13.3616 93.0292 14.2016C93.2932 14.4416 93.5332 14.7896 93.7492 15.2456C95.3812 18.5816 96.5932 20.7416 97.3852 21.7256C98.1772 22.7096 99.4012 23.3816 101.057 23.7416L100.805 24.6416L96.7732 24.9296C95.4772 23.8736 94.4932 22.8296 93.8212 21.7976C93.1732 20.7656 92.0932 18.6536 90.5812 15.4616C90.2692 14.8136 89.8372 14.4896 89.2852 14.4896ZM87.1972 3.8336V12.6536H89.5372C91.3132 12.6536 92.7052 12.4496 93.7132 12.0416C94.2412 11.6576 94.6492 11.2136 94.9372 10.7096C95.2252 10.1816 95.3692 9.4136 95.3692 8.4056C95.3692 6.8456 94.9492 5.5496 94.1092 4.5176C93.2932 3.4616 91.9372 2.9336 90.0412 2.9336H88.1692C87.5212 2.9336 87.1972 3.2336 87.1972 3.8336ZM123.615 22.1216C123.615 21.9776 123.579 21.8216 123.507 21.6536L121.887 17.0816H113.535L111.627 22.5896L114.723 23.8496L114.507 24.6416H106.551L106.335 23.8496L108.315 23.0216C108.723 22.8536 108.975 22.6976 109.071 22.5536C109.191 22.4096 109.335 22.1096 109.503 21.6536L116.703 1.6016L118.899 0.9536L119.619 1.2416L127.359 22.6976L130.167 23.8496L129.951 24.6416H121.131L120.915 23.8496L122.895 23.0216C123.375 22.8296 123.615 22.5296 123.615 22.1216ZM117.675 5.1296L114.147 15.2456H121.239L117.675 5.1296ZM152.583 1.2416V6.1736L151.719 6.4256L149.919 3.0776L145.995 2.9696C145.683 2.9456 145.443 3.0296 145.275 3.2216C145.107 3.4136 145.023 3.6416 145.023 3.9056V22.5896L148.119 23.8496L147.903 24.6416H139.083L138.867 23.8496L140.847 23.0216C141.279 22.8536 141.567 22.6736 141.711 22.4816C141.879 22.2896 141.963 22.0136 141.963 21.6536V2.9336L137.067 3.0776L135.267 6.4256L134.403 6.1736V1.2416H152.583ZM165.62 4.5896C164.132 6.6296 163.388 9.2576 163.388 12.4736C163.388 15.6896 164.06 18.1976 165.404 19.9976C166.772 21.7976 168.74 22.6976 171.308 22.6976C173.444 22.6976 175.184 22.2536 176.528 21.3656C178.016 19.5416 178.76 16.9736 178.76 13.6616C178.76 10.3256 178.076 7.7576 176.708 5.9576C175.364 4.1576 173.42 3.2576 170.876 3.2576C168.764 3.2576 167.012 3.7016 165.62 4.5896ZM160.04 13.1216C160.04 11.1056 160.352 9.3056 160.976 7.7216C161.6 6.1376 162.44 4.8656 163.496 3.9056C165.704 1.9376 168.356 0.9536 171.452 0.9536C174.572 0.9536 177.128 2.0096 179.12 4.1216C181.112 6.2336 182.108 9.1376 182.108 12.8336C182.108 14.8496 181.796 16.6496 181.172 18.2336C180.548 19.7936 179.696 21.0536 178.616 22.0136C176.456 23.9576 173.816 24.9296 170.696 24.9296C167.576 24.9296 165.02 23.8856 163.028 21.7976C161.036 19.7096 160.04 16.8176 160.04 13.1216ZM211.424 4.2296V24.6416L208.832 24.9296L195.512 5.9936V22.5896L198.608 23.8496L198.392 24.6416H190.256L190.04 23.8496L192.02 23.0216C192.452 22.8536 192.74 22.6736 192.884 22.4816C193.052 22.2896 193.136 22.0136 193.136 21.6536V3.2936L190.04 2.0336L190.256 1.2416H196.268L209.012 19.3856V19.4576L209.048 19.3856V3.2936L205.952 2.0336L206.168 1.2416H214.304L214.52 2.0336L212.54 2.8616C212.108 3.0296 211.808 3.2096 211.64 3.4016C211.496 3.5936 211.424 3.8696 211.424 4.2296Z" fill="#E0B973"/>
</svg>
